<?xml version="1.0" encoding="UTF-8" standalone="no"?>
<!-- Created using Krita: https://krita.org -->

<svg
   width="230"
   height="54.333"
   viewBox="0 0 575 135.8325"
   version="1.1"
   id="svg1"
   sodipodi:docname="logo_min.svg"
   inkscape:version="1.4.2 (f4327f4, 2025-05-13)"
   xml:space="preserve"
   xmlns:inkscape="http://www.inkscape.org/namespaces/inkscape"
   xmlns:sodipodi="http://sodipodi.sourceforge.net/DTD/sodipodi-0.dtd"
   xmlns="http://www.w3.org/2000/svg"
   xmlns:svg="http://www.w3.org/2000/svg"><sodipodi:namedview
     id="namedview1"
     pagecolor="#ffffff"
     bordercolor="#000000"
     borderopacity="0.25"
     inkscape:showpageshadow="2"
     inkscape:pageopacity="0.0"
     inkscape:pagecheckerboard="0"
     inkscape:deskcolor="#d1d1d1"
     inkscape:document-units="pt"
     inkscape:zoom="2.8284273"
     inkscape:cx="150.61374"
     inkscape:cy="54.97755"
     inkscape:window-width="1920"
     inkscape:window-height="1009"
     inkscape:window-x="-8"
     inkscape:window-y="-8"
     inkscape:window-maximized="1"
     inkscape:current-layer="svg1"
     showguides="true" /><defs
     id="defs1"><rect
       x="164.5"
       y="39.5"
       width="624.5"
       height="217.99998"
       id="rect3" /><rect
       x="4790.2949"
       y="2662.2571"
       width="37.476658"
       height="19.79899"
       id="rect8" /><rect
       x="544"
       y="2508"
       width="3612"
       height="144"
       id="rect1" /><rect
       x="4790.2949"
       y="2662.2571"
       width="37.476658"
       height="19.79899"
       id="rect8-8" /><rect
       x="544"
       y="2508"
       width="3612"
       height="144"
       id="rect1-8" /></defs><g
     id="g2"
     style="display:inline"
     transform="translate(-1.2833713,2.0773439)"><rect
       style="display:inline;fill:#f9693c;fill-opacity:1;stroke-width:47.7503"
       id="rect2"
       width="29.4375"
       height="29.484375"
       x="48.609375"
       y="46.078125"
       rx="0"
       ry="0" /><path
       style="display:inline;fill:#f9693c;fill-opacity:1;stroke-width:47.7503"
       d="M 25.687499,42.562499 V 95.702665 L 84.943187,95.692267 84.859145,80.668544 41.929972,80.867417 41.764244,42.61173 Z"
       id="path2"
       sodipodi:nodetypes="ccccccc" /><path
       style="display:inline;fill:#f9693c;fill-opacity:1;stroke-width:47.7503"
       d="M 68.296874,29.624999 H 98.15625 v 29.625 H 85.734375 v -17.25 l -17.531251,0.09375 z"
       id="path3"
       sodipodi:nodetypes="ccccccc" /><path
       style="font-weight:bold;font-size:133.333px;font-family:Constantia;-inkscape-font-specification:'Constantia Bold';letter-spacing:0px;white-space:pre;display:inline;stroke-width:63.667"
       d="m 200.3072,139.15763 c 0,5.12151 0.0434,9.30987 0.13021,12.56507 0.0434,1.04166 0.60763,1.7361 1.6927,2.08333 l 9.57029,2.73436 0.19531,3.2552 c -6.72741,-0.13021 -13.75864,-0.19531 -21.09369,-0.19531 -7.50867,0 -14.27948,0.0651 -20.31245,0.19531 l -0.32552,-3.2552 8.72393,-2.40884 c 1.12847,-0.34723 1.71441,-1.01997 1.75781,-2.01823 0.0868,-3.51561 0.13021,-7.83418 0.13021,-12.95569 V 87.269738 c 0,-2.170133 -0.0217,-4.144955 -0.0651,-5.924464 0,-1.779509 -0.0217,-3.407109 -0.0651,-4.8828 -0.0434,-1.128469 -0.56423,-1.844613 -1.56249,-2.148432 l -8.72394,-2.539056 -0.19531,-3.320304 c 6.07637,0.173611 11.84893,0.260416 17.31766,0.260416 h 15.55986 c 10.50345,0 21.44092,-0.0868 32.81241,-0.260416 l 0.39063,0.520832 -4.55728,25.06504 -3.32031,0.520832 -5.20832,-19.20568 H 200.3072 Z M 302.00243,69.328761 c 4.68748,0.173611 8.62496,0.03007 13.52946,0.03007 4.73089,0 11.7768,0.09022 17.11532,-0.08339 l -0.0469,3.513422 -6.79509,0.906332 c -0.91146,0.292603 -2.21413,0.881222 -3.13333,1.894602 -0.60764,0.434027 -1.14208,1.014355 -1.66291,1.708798 -0.47743,0.694442 -0.94805,1.384739 -1.38207,2.296195 -0.43403,0.911456 -0.6663,2.0014 -1.14373,3.173272 -4.60068,11.501706 -9.49297,22.580458 -14.09365,33.908548 -4.60068,11.2847 -8.56993,20.41573 -11.47791,27.75078 -2.51736,6.4236 -4.84421,10.3769 -6.14629,12.50363 -1.25868,2.08333 -2.69097,3.75433 -4.29686,5.01301 -1.6059,1.30208 -3.47222,2.19183 -5.59895,2.66926 -2.08333,0.52083 -4.51388,0.75955 -7.29165,0.71614 -4.21005,0 -9.18928,-0.43329 -13.26913,-1.17113 l -0.4392,-4.41611 4.90827,-0.20116 c 2.86457,-0.52083 5.52281,-1.55957 7.73634,-2.60123 2.25694,-1.08507 3.93933,-2.25913 5.76224,-3.90844 1.82291,-1.6927 3.39644,-3.56047 4.95893,-5.86081 1.5625,-2.34375 3.36336,-4.62752 4.92585,-7.75251 l -3.64582,-1.10677 -28.84108,-56.314949 c -0.69444,-1.345483 -1.30208,-2.473952 -1.82291,-3.385408 -0.47743,-0.954859 -0.99826,-1.757808 -1.56249,-2.408848 -0.52083,-0.694443 -1.10677,-1.236976 -1.75781,-1.6276 -0.65104,-0.434027 -1.51909,-0.802949 -2.60416,-1.106768 l -7.1081,-0.574331 -0.27959,-3.195402 c 3.99304,0.17361 11.86377,0.139481 20.76132,0.139481 7.59547,0 15.04372,-0.116705 22.16176,-0.290321 l -0.47508,3.229268 -5.5682,0.6913 c -0.99826,0.260416 -1.7144,0.629339 -2.14843,1.106768 -0.39063,0.434027 -0.58594,1.041664 -0.58594,1.822912 0,1.041664 0.36892,2.322043 1.10677,3.841136 l 2.60416,5.143216 14.06246,27.734306 c 1.43229,2.77777 2.88628,5.98956 4.36197,9.63539 2.69097,-6.16318 5.16492,-12.21785 7.42186,-18.16402 2.30034,-5.946162 4.62238,-12.022535 6.96613,-18.229116 0.99826,-2.647563 1.7361,-4.752592 2.21353,-6.315088 0.52083,-1.562496 0.78125,-2.799472 0.78125,-3.710928 0,-0.868053 -0.26042,-1.497392 -0.78125,-1.888016 -0.47743,-0.390624 -1.23697,-0.716144 -2.27864,-0.97656 l -5.13923,-0.834202 z m 94.9157,71.062919 c 0,4.81769 0.0434,8.2248 0.1302,10.22132 0.0868,1.47569 0.56424,1.56981 1.43229,1.56981 h 12.49997 l 0.39062,0.45573 -2.47606,33.73412 -5.40257,0.45865 -6.47733,-28.26099 h -66.96681 l -5.27448,27.80234 -4.62238,0.71614 -4.15563,-34.83649 0.39063,-0.45573 10.81829,0.12874 c 2.47395,-2.64756 4.17838,-5.28073 6.30511,-9.18697 2.17013,-3.94965 4.12325,-8.20311 5.85936,-12.76039 1.77951,-4.55728 3.32031,-9.28817 4.62239,-14.19267 1.34548,-4.94791 2.45225,-9.7873 3.3203,-14.51819 0.91145,-4.730892 1.58419,-9.201367 2.01822,-13.411426 0.43403,-4.253461 0.65104,-8.029493 0.65104,-11.328096 0,-1.041664 -0.62934,-1.714405 -1.88801,-2.018224 l -9.2579,-1.961896 -0.19531,-3.320304 c 6.38019,0.173611 11.63192,0.260416 15.75517,0.260416 h 34.30981 c 5.94617,0 13.46339,0.04194 19.45296,-0.131671 l 0.32552,3.320304 -9.67739,1.765122 c -1.12847,0.347221 -1.7144,1.019963 -1.75781,2.018224 -0.0434,1.736107 -0.0868,3.689227 -0.1302,5.85936 v 7.031232 z m -37.3907,-64.131831 c -0.52083,6.206581 -1.17187,11.491706 -1.95312,17.915301 -0.78125,6.72741 -1.96291,13.38473 -3.58072,19.98692 -1.61781,6.60219 -3.60243,13.10761 -6.11978,19.5312 -2.51735,6.4236 -5.77255,12.58678 -9.7656,18.48954 l 39.70136,-0.25748 0.23836,-75.794227 z m 61.22872,-6.131478 c 6.07637,0.173611 11.73045,-0.12582 18.15404,-0.12582 2.34375,-0.0868 6.01127,-0.217013 11.00258,-0.390624 4.99131,-0.173611 8.42012,-0.260416 10.28643,-0.260416 10.98087,0 19.24908,1.779509 24.80462,5.338528 5.59895,3.515616 7.68333,7.821256 7.68333,14.461864 0,10.416639 -6.16318,17.621477 -18.48954,21.614527 7.16144,0.99826 12.67358,3.49391 16.53642,7.48696 3.90624,3.99305 5.85936,8.98435 5.85936,14.97392 0,8.68053 -3.49391,15.40795 -10.48174,20.18224 -6.98783,4.73089 -16.88364,7.09634 -29.68743,7.09634 -2.51735,0 -5.16492,-0.0651 -7.94269,-0.19532 -2.73437,-0.13021 -6.16318,-0.19531 -10.28643,-0.19531 -6.33679,0 -11.40562,-0.32114 -17.35179,-0.19093 l -0.20634,-3.77018 7.53212,-1.50762 c 1.08507,-0.30382 1.671,-0.97656 1.7578,-2.01823 0.0434,-1.73611 0.0651,-3.66752 0.0651,-5.79425 0.0434,-2.17013 0.0621,-4.55728 0.0651,-7.16144 l 0.0596,-51.887891 c 0.002,-2.170131 0.0379,-3.823092 -0.006,-5.602601 0,-1.779509 -0.0217,-3.407109 -0.0651,-4.8828 -0.0434,-1.128469 -0.56423,-1.844613 -1.56249,-2.148432 l -8.12803,-1.830956 z m 28.70194,44.934919 v 38.9322 c 2.43055,0.39062 4.99131,0.58593 7.68228,0.58593 5.94616,0 10.46004,-1.7144 13.54163,-5.14321 3.08159,-3.47221 4.62238,-8.48522 4.62238,-15.03903 0,-6.5538 -1.5625,-11.4149 -4.68749,-14.58329 -3.12499,-3.2118 -8.1814,-4.8177 -15.16923,-4.8177 -2.03993,0 -4.03645,0.0217 -5.98957,0.0651 z m 0,-5.85936 c 2.21354,0.0434 4.31857,0.0651 6.31509,0.0651 5.55554,0 9.65709,-1.32378 12.30466,-3.97135 2.69097,-2.69096 4.03645,-7.226536 4.03645,-13.606731 0,-5.989568 -0.6738,-9.51396 -3.45157,-12.11812 -2.73437,-2.60416 -6.70571,-3.90624 -11.91403,-3.90624 -0.82465,0 -1.80121,0.0434 -2.92968,0.130208 -1.08507,0.0434 -2.30034,0.151907 -3.64583,0.32552 z m 82.30003,18.85954 41.33383,-41.497726 c 0,-3.689227 -0.0434,-6.966128 -0.13021,-9.830704 -0.0434,-1.041664 -0.62934,-1.714405 -1.75781,-2.018224 l -7.55206,-2.213536 -0.19532,-3.320304 c 5.51214,0.173611 12.02254,0.260416 19.5312,0.260416 7.33505,0 15.1121,-0.0868 20.97146,-0.260416 l 0.39062,3.320304 -8.91924,2.539056 c -0.99827,0.303819 -1.5191,1.019963 -1.5625,2.148432 -0.0868,2.864576 -0.13021,6.466997 -0.13021,10.807264 v 51.887888 c 0,5.12151 0.0434,9.44008 0.13021,12.95569 0.0434,0.99826 0.62934,1.671 1.75781,2.01823 l 8.52862,2.40884 0.19531,3.2552 c -6.20658,-0.13021 -14.24404,-0.19531 -21.7527,-0.19531 -7.33505,0 -13.60674,0.0651 -18.81506,0.19531 l -0.32552,-3.2552 7.74738,-2.27864 c 1.12847,-0.30381 1.7144,-1.06336 1.75781,-2.27864 0.0868,-3.42881 0.13021,-7.70397 0.13021,-12.82548 V 97.307904 l -41.33383,41.562836 c 0,5.55554 0.0434,10.04771 0.13021,13.47652 0.0434,1.21528 0.60763,1.97483 1.6927,2.27864 l 7.55207,2.27864 0.19531,3.2552 c -5.38193,-0.13021 -11.74042,-0.19531 -19.07547,-0.19531 -7.50867,0 -14.27948,0.0651 -20.31245,0.19531 l -0.32552,-3.2552 8.72393,-2.40884 c 1.12847,-0.34723 1.71441,-1.01997 1.75781,-2.01823 0.0868,-3.51561 0.13021,-7.83418 0.13021,-12.95569 V 87.633885 c 0,-4.340267 -0.0434,-7.942688 -0.13021,-10.807264 -0.0434,-1.128469 -0.56423,-1.844613 -1.56249,-2.148432 l -8.72394,-2.539056 -0.19531,-3.320304 c 6.03297,0.173611 12.71698,0.260416 20.05203,0.260416 7.55207,0 13.97566,-0.0868 19.27078,-0.260416 l 0.39063,3.320304 -7.74738,2.213536 c -1.08507,0.303819 -1.6493,0.97656 -1.6927,2.018224 -0.0868,3.124992 -0.13021,6.792517 -0.13021,11.002576 z m 108.16376,-12.87736 v 24.15359 c 0,5.12151 0.0434,9.39667 0.13021,12.82548 0.0434,1.21528 0.60763,1.97483 1.6927,2.27864 l 7.55207,2.27864 0.19531,3.2552 c -5.38193,-0.13021 -11.74042,-0.19531 -19.07547,-0.19531 -7.50866,0 -14.27948,0.0651 -20.31245,0.19531 l -0.32552,-3.2552 8.72394,-2.40884 c 1.12847,-0.34723 1.7144,-1.01997 1.7578,-2.01823 0.0868,-3.51561 0.13021,-7.83418 0.13021,-12.95569 V 87.451811 c 0,-4.340267 -0.0434,-7.942688 -0.13021,-10.807264 -0.0434,-1.128469 -0.56423,-1.844613 -1.56249,-2.148432 l -8.72394,-2.539056 -0.19531,-3.320304 c 6.03297,0.173611 12.71698,0.260416 20.05203,0.260416 7.55207,0 13.97566,-0.0868 19.27079,-0.260416 l 0.39062,3.320304 -7.74738,2.213536 c -1.08507,0.303819 -1.6493,0.97656 -1.6927,2.018224 -0.0868,3.124992 -0.13021,6.792517 -0.13021,11.002576 v 21.093695 l 42.84716,0.54622 V 87.737616 c 0,-4.210059 -0.0434,-7.877584 -0.13021,-11.002576 -0.0434,-1.041664 -0.60764,-1.714405 -1.69271,-2.018224 l -7.61716,-2.213536 -0.19532,-3.320304 c 5.51214,0.173611 12.02254,0.260416 19.5312,0.260416 7.33505,0 13.95396,-0.0868 19.85672,-0.260416 l 0.32552,3.320304 -8.85414,2.539056 c -0.99826,0.303819 -1.54079,1.019963 -1.6276,2.148432 -0.0868,2.864576 -0.13021,6.466997 -0.13021,10.807264 v 51.887888 c 0,5.12151 0.0434,9.44008 0.13021,12.95569 0.0868,0.99826 0.69444,1.671 1.82291,2.01823 l 8.46352,2.40884 0.19531,3.2552 c -6.20658,-0.13021 -13.0642,-0.19531 -20.57286,-0.19531 -7.33505,0 -13.60674,0.0651 -18.81506,0.19531 l -0.32552,-3.2552 7.81248,-2.27864 c 1.08507,-0.30381 1.6493,-1.06336 1.69271,-2.27864 0.0868,-3.42881 0.13021,-7.70397 0.13021,-12.82548 v -24.15359 z"
       id="text3"
       aria-label="ГУДВИН"
       sodipodi:nodetypes="sccccsccccsscccccssccccccscscccccsccccccccccccccccccccccsccccscccccccsccccscsccccccccccccccccscccssccccccscczsccccccsscsccscscscccccsscccccccscscsccssscscccccccccsccccssccccsccccsccccccsccccssccccsccccsccsccccsccccssccccsccccsccsccccsccccssccccsccccscc"
       transform="matrix(0.78661241,0,0,0.72818176,-8.855117,-21.014961)" /></g></svg>
